# xmcd CD database file
#
# Track frame offsets:
#	150
#	21667
#	40460
#	79774
#	111757
#	128492
#	154229
#	166160
#	186041
#	208375
#	226924
#	242981
#	266553
#	292294
#	309622
#	323456
#
# Disc length: 4528 seconds
#
# Revision: 0
# Processed by: cddbd v1.5.1PL2 Copyright (c) Steve Scherf et al.
# Submitted via: CDex 1.51
#
DISCID=e611ae10
DTITLE=Various Artist - Sleigh Ride - A Jazz Christmas
DYEAR=2000
DGENRE=Jazz
TTITLE0=Santa Claus Is Coming To Town - Elvin Jones Quintet
TTITLE1=Silent Night/Rudolph The Red-Nodes Reindeer - Free Flight
TTITLE2=We Three Kings Of Orient Are - Larry Vuckovich Sextet
TTITLE3=The Christmas Song - Mal Waldron Quartet
TTITLE4=God Rest Ye Swinging Gentlemen - Chico Freeman Quartet
TTITLE5=Silent Night - McCoy Tyner Trio
TTITLE6=Little Drummerboy - Rare Silk
TTITLE7=The Christmas Waltz - Phil Woods - Steve Gilmore
TTITLE8=O Come, O Come, Immanuel - David Friesen - Jeff Johnson
TTITLE9=The Light Of Christmas - Bobbie Norris - Larry Dunlap
TTITLE10=The Christmas Song - Chico Freeman - Larry Willis
TTITLE11=Gifts For The Children - Phil Woods Quartet
TTITLE12=Sleigh Ride - Richie Cole - Art Pepper Quintet
TTITLE13=Little Bebop Drummer Boy - Les DeMerie Sextet
TTITLE14=We Three Kings Of Orient Are - Full Faith And Credit Big Band
TTITLE15=God Rest Ye Merry Gentleman/We Three Kings Of Orient Are - Sheila Jordan - Harvie Swartz Duo
EXTD=YEAR: 2000
EXTT0=
EXTT1=
EXTT2=
EXTT3=
EXTT4=
EXTT5=
EXTT6=
EXTT7=
EXTT8=
EXTT9=
EXTT10=
EXTT11=
EXTT12=
EXTT13=
EXTT14=
EXTT15=
PLAYORDER=
